<svg width="56" height="56" viewBox="0 0 56 56" fill="none" xmlns="http://www.w3.org/2000/svg">
    <path d="M25.5 39C25.775 39 26 39.225 26 39.5V44.5C26 44.775 25.775 45 25.5 45C25.225 45 25 44.775 25 44.5V39.5C25 39.225 25.225 39 25.5 39Z" fill="#4788C7"/>
    <path d="M27.5 45.5L25.5 44.5L24.5 45.5" stroke="#4788C7" stroke-miterlimit="10" stroke-linecap="round"/>
    <path d="M30.5 39C30.775 39 31 39.225 31 39.5V44.5C31 44.775 30.775 45 30.5 45C30.225 45 30 44.775 30 44.5V39.5C30 39.225 30.225 39 30.5 39Z" fill="#4788C7"/>
    <path d="M26.5 41.5C22.905 41.5 19.482 40.128 16.863 37.638L16.719 37.5H7.289C7.601 37.336 7.906 37.167 8.227 36.99C8.543 36.816 8.873 36.634 9.235 36.441L11.009 35.5H6.686C11.63 32.236 15.91 28.91 20.417 25.406C21.685 24.42 22.974 23.418 24.305 22.397C27.599 19.868 27.968 18.856 28.528 17.323C28.64 17.015 28.761 16.683 28.92 16.307C28.977 16.165 29.036 16.035 29.098 15.905L29.179 15.738C30.217 13.74 32.256 12.5 34.5 12.5C37.809 12.5 40.5 15.191 40.5 18.5C40.5 18.871 40.241 19.556 40.013 20.161C39.749 20.857 39.5 21.516 39.5 22C39.5 22.33 39.617 22.697 39.778 23.205C40.065 24.107 40.5 25.47 40.5 27.5C40.5 35.612 34.612 41.5 26.5 41.5Z" fill="#EAF5FF"/>
    <path d="M34.5 13C37.533 13 40 15.467 40 18.5C40 18.779 39.737 19.475 39.545 19.984C39.265 20.724 39 21.424 39 22C39 22.408 39.133 22.827 39.302 23.357C39.58 24.229 40 25.547 40 27.5C40 35.322 34.322 41 26.5 41C23.034 41 19.734 39.677 17.208 37.275L16.918 37H16.518H14H9.25C9.322 36.962 9.394 36.923 9.468 36.883L13.017 35H9H8.331C12.719 32.022 16.624 28.987 20.716 25.806C21.986 24.819 23.277 23.816 24.609 22.793C27.866 20.293 28.353 19.257 28.996 17.496C29.106 17.195 29.224 16.87 29.388 16.481C29.436 16.359 29.49 16.241 29.554 16.107L29.591 16.026L29.592 16.025L29.621 15.969C30.574 14.137 32.443 13 34.5 13ZM34.5 12C31.991 12 29.817 13.424 28.734 15.506H28.729C28.698 15.57 28.674 15.628 28.646 15.69C28.579 15.829 28.516 15.969 28.459 16.113C27.529 18.319 27.85 19.045 24 22C17.484 27.002 11.958 31.542 5 36C7.351 36 7.8 36 9 36C7.555 36.767 6.626 37.37 5 38C8.646 38 13.288 38 14 38C14.972 38 15.751 38 16.519 38C19.12 40.473 22.628 42 26.5 42C35 42 41 35.813 41 27.5C41 24.353 40 22.765 40 22C40 21.192 41 19.399 41 18.5C41 14.91 38.09 12 34.5 12Z" fill="#4788C7"/>
    <path d="M34.5 19C35.3284 19 36 18.3284 36 17.5C36 16.6716 35.3284 16 34.5 16C33.6716 16 33 16.6716 33 17.5C33 18.3284 33.6716 19 34.5 19Z" fill="black"/>
    <path d="M12.801 40.344C14.93 35.161 18.918 27.964 21.493 25.388C22.711 24.17 24.33 23.5 26.053 23.5C27.775 23.5 29.394 24.17 30.612 25.388C31.83 26.606 32.501 28.225 32.501 29.947C32.501 31.669 31.83 33.288 30.612 34.506C27.847 37.271 17.207 39.515 12.801 40.344Z" fill="#5D6369"/>
    <path d="M26.053 24C27.642 24 29.135 24.619 30.258 25.742C31.381 26.865 32 28.359 32 29.947C32 31.536 31.381 33.029 30.258 34.152C28.159 36.251 20.597 38.317 13.626 39.677C15.786 34.689 19.494 28.095 21.848 25.742C22.971 24.619 24.464 24 26.053 24ZM26.053 23C24.275 23 22.497 23.678 21.14 25.035C18.427 27.748 14.083 35.625 12 41C18.417 39.842 28.252 37.573 30.965 34.86C33.678 32.147 33.678 27.748 30.965 25.035C29.609 23.678 27.831 23 26.053 23Z" fill="#5D6369"/>
    <path d="M40 18C39.567 18 39.198 18.275 39.059 18.66C39.021 18.766 39.017 18.83 38.932 18.914C38.841 19.005 38.749 19.023 38.637 19.067C38.264 19.213 38 19.576 38 20C38 20.552 38.448 21 39 21C40.435 21 40.6 21 43 21C43 19.671 41.1 18 40 18Z" fill="#C79447"/>
    <path d="M32.5 45.5L30.5 44.5L29.5 45.5" stroke="#4788C7" stroke-miterlimit="10" stroke-linecap="round"/>
    <line x1="51.5" y1="7" x2="51.5" y2="18" stroke="black"/>
    <ellipse cx="50" cy="18.2684" rx="2.66921" ry="1.43135" transform="rotate(-20.2981 50 18.2684)" fill="black"/>
    </svg>
